# xmcd
#
# Track frame offsets:
#	150
#	14017
#	28688
#	39841
#	51771
#	63645
#	78323
#	91869
#	107028
#	117368
#	132161
#	146219
#	159396
#	173163
#
# Disc length: 2485 seconds
#
# Revision: 0
# Processed by: cddbd v1.5.2PL0 Copyright (c) Steve Scherf et al.
# Submitted via: EasyCDDAExtractor 16.0.8.2
#
DISCID=b809b30e
DTITLE=Ζαγοραίος Σπύρος - Οι μεγάλες επιτυχίες-Σ. Ζαγοραίος 1
DYEAR=2015
DGENRE=Ποικίλη
TTITLE0=Προσευχή [Σ. Ζαγοραίος-Δημ. Γκούτης]
TTITLE1=Τον Χάρο τον αντάμωσαν [Παν. Τούντας]
TTITLE2=Σάπιο σανίδι πάτησα [Γερ. Κλουβάτος-Χαρ. Βασιλειάδης]
TTITLE3=Ντόλτσε βίτα [Θ. Δερβενιώτης-Κ. Βίρβος]
TTITLE4=Στης Λαρίσης το ποτάμι [Γ. Μητσάκης]
TTITLE5=Βάλτε μου δυό γαρουφαλιές [Μιχ. Δασκαλάκης]
TTITLE6=Μπαρμπα Θωμάς [Γ. Μητσάκης]
TTITLE7=Δώσ' μου μιά φωτογραφία [Γ. Μανισαλής-Κ. Βίρβος]
TTITLE8=Μέσ' στης πόλης το χαμάμ [Ανέστης Δελιάς]
TTITLE9=Άναψε το τσιγάρο [Γερ. Κλουβάτος-Χαρ. Βασιλειάδης]
TTITLE10=Κάτσε Χάρε να τα πιείς [Θοδ. Πολυκανδριώτης-Ιωάν. Παυλής]
TTITLE11=Έγιναν γκρίζα τα μαλλιά μου [Σ. Ζαγοραίος-Κ. Βίρβος]
TTITLE12=Μιά πεντάμορφη τσιγγάνα [Ν. Δεπάστας-Στρ. Βαλλιάνος]
TTITLE13=Παλαμάκια, παλαμάκια [Θ. Δερβενιώτης-Κ. Βίρβος]
EXTD=
EXTT0=
EXTT1=
EXTT2=
EXTT3=
EXTT4=
EXTT5=
EXTT6=
EXTT7=
EXTT8=
EXTT9=
EXTT10=
EXTT11=
EXTT12=
EXTT13=
PLAYORDER=
